<svg xmlns="http://www.w3.org/2000/svg" xmlns:xlink="http://www.w3.org/1999/xlink" width="500" zoomAndPan="magnify" viewBox="0 0 375 374.999991" height="500" preserveAspectRatio="xMidYMid meet" version="1.0"><defs><g/><clipPath id="679e4c56d3"><path d="M 6.578125 0 L 375 0 L 375 371.300781 L 6.578125 371.300781 Z M 6.578125 0 " clip-rule="nonzero"/></clipPath><clipPath id="d5ad3514a9"><path d="M 190.789062 0 L 210.527344 22.367188 L 235.527344 5.261719 L 249.34375 31.578125 L 276.972656 21.050781 L 284.210938 50 L 313.816406 46.710938 L 313.816406 76.316406 L 343.421875 80.261719 L 336.84375 109.210938 L 364.472656 119.738281 L 350.65625 146.050781 L 375 163.15625 L 355.261719 185.527344 L 375 207.894531 L 350.65625 225 L 364.472656 251.316406 L 336.84375 261.84375 L 343.421875 290.789062 L 313.816406 294.738281 L 313.816406 324.34375 L 284.210938 321.050781 L 276.972656 350 L 249.34375 339.472656 L 235.527344 365.789062 L 210.527344 348.683594 L 190.789062 371.050781 L 171.050781 348.683594 L 146.050781 365.789062 L 132.238281 339.472656 L 104.605469 350 L 97.367188 321.050781 L 67.761719 324.34375 L 67.761719 294.738281 L 38.15625 290.789062 L 44.738281 261.84375 L 17.105469 251.316406 L 30.921875 225 L 6.578125 207.894531 L 26.316406 185.527344 L 6.578125 163.15625 L 30.921875 146.050781 L 17.105469 119.738281 L 44.738281 109.210938 L 38.15625 80.261719 L 67.761719 76.316406 L 67.761719 46.710938 L 97.367188 50 L 104.605469 21.050781 L 132.238281 31.578125 L 146.050781 5.261719 L 171.050781 22.367188 Z M 190.789062 0 " clip-rule="nonzero"/></clipPath><clipPath id="4f0eda2be8"><path d="M 0.578125 0 L 369 0 L 369 371.28125 L 0.578125 371.28125 Z M 0.578125 0 " clip-rule="nonzero"/></clipPath><clipPath id="2b53697432"><path d="M 184.789062 0 L 204.527344 22.367188 L 229.527344 5.261719 L 243.34375 31.578125 L 270.972656 21.050781 L 278.210938 50 L 307.816406 46.710938 L 307.816406 76.316406 L 337.421875 80.261719 L 330.84375 109.210938 L 358.472656 119.738281 L 344.65625 146.050781 L 369 163.15625 L 349.261719 185.527344 L 369 207.894531 L 344.65625 225 L 358.472656 251.316406 L 330.84375 261.84375 L 337.421875 290.789062 L 307.816406 294.738281 L 307.816406 324.34375 L 278.210938 321.050781 L 270.972656 350 L 243.34375 339.472656 L 229.527344 365.789062 L 204.527344 348.683594 L 184.789062 371.050781 L 165.050781 348.683594 L 140.050781 365.789062 L 126.238281 339.472656 L 98.605469 350 L 91.367188 321.050781 L 61.761719 324.34375 L 61.761719 294.738281 L 32.15625 290.789062 L 38.738281 261.84375 L 11.105469 251.316406 L 24.921875 225 L 0.578125 207.894531 L 20.316406 185.527344 L 0.578125 163.15625 L 24.921875 146.050781 L 11.105469 119.738281 L 38.738281 109.210938 L 32.15625 80.261719 L 61.761719 76.316406 L 61.761719 46.710938 L 91.367188 50 L 98.605469 21.050781 L 126.238281 31.578125 L 140.050781 5.261719 L 165.050781 22.367188 Z M 184.789062 0 " clip-rule="nonzero"/></clipPath><clipPath id="421ff5bc8b"><rect x="0" width="369" y="0" height="372"/></clipPath><clipPath id="2e4a637d7a"><rect x="0" width="207" y="0" height="338"/></clipPath><clipPath id="0847617ed0"><rect x="0" width="189" y="0" height="328"/></clipPath><clipPath id="f27c8079ce"><path d="M 7 46 L 28 46 L 28 69 L 7 69 Z M 7 46 " clip-rule="nonzero"/></clipPath><clipPath id="1177e92c33"><path d="M 4.648438 50.3125 L 24.96875 43.148438 L 31.789062 62.488281 L 11.464844 69.652344 Z M 4.648438 50.3125 " clip-rule="nonzero"/></clipPath><clipPath id="a39af95bb8"><path d="M 14.792969 46.738281 L 19.792969 53.28125 L 27.542969 50.546875 L 22.882812 57.324219 L 27.882812 63.867188 L 20 61.511719 L 15.339844 68.289062 L 15.132812 60.054688 L 7.25 57.699219 L 15.003906 54.96875 Z M 14.792969 46.738281 " clip-rule="nonzero"/></clipPath><clipPath id="f96cf43997"><path d="M 0.199219 0.519531 L 21 0.519531 L 21 22.359375 L 0.199219 22.359375 Z M 0.199219 0.519531 " clip-rule="nonzero"/></clipPath><clipPath id="67eaf16fb7"><path d="M -2.351562 4.3125 L 17.96875 -2.851562 L 24.789062 16.488281 L 4.464844 23.652344 Z M -2.351562 4.3125 " clip-rule="nonzero"/></clipPath><clipPath id="51b5b59bd1"><path d="M 7.792969 0.738281 L 12.792969 7.28125 L 20.542969 4.546875 L 15.882812 11.324219 L 20.882812 17.867188 L 13 15.511719 L 8.339844 22.289062 L 8.132812 14.054688 L 0.25 11.699219 L 8.003906 8.96875 Z M 7.792969 0.738281 " clip-rule="nonzero"/></clipPath><clipPath id="3dcfd3894c"><rect x="0" width="21" y="0" height="23"/></clipPath><clipPath id="3d2dd5b85b"><path d="M 91 17 L 113 17 L 113 39 L 91 39 Z M 91 17 " clip-rule="nonzero"/></clipPath><clipPath id="41602daa39"><path d="M 88.78125 20.652344 L 109.105469 13.492188 L 115.921875 32.832031 L 95.601562 39.996094 Z M 88.78125 20.652344 " clip-rule="nonzero"/></clipPath><clipPath id="dfa1158a92"><path d="M 98.929688 17.078125 L 103.925781 23.621094 L 111.679688 20.886719 L 107.015625 27.664062 L 112.015625 34.207031 L 104.136719 31.851562 L 99.476562 38.628906 L 99.265625 30.398438 L 91.386719 28.042969 L 99.136719 25.308594 Z M 98.929688 17.078125 " clip-rule="nonzero"/></clipPath><clipPath id="897942c9a1"><path d="M 0.199219 0 L 21.078125 0 L 21.078125 21.839844 L 0.199219 21.839844 Z M 0.199219 0 " clip-rule="nonzero"/></clipPath><clipPath id="2ab69b42f9"><path d="M -2.21875 3.652344 L 18.105469 -3.507812 L 24.921875 15.832031 L 4.601562 22.996094 Z M -2.21875 3.652344 " clip-rule="nonzero"/></clipPath><clipPath id="6f3e47bab5"><path d="M 7.929688 0.078125 L 12.925781 6.621094 L 20.679688 3.886719 L 16.015625 10.664062 L 21.015625 17.207031 L 13.136719 14.851562 L 8.476562 21.628906 L 8.265625 13.398438 L 0.386719 11.042969 L 8.136719 8.308594 Z M 7.929688 0.078125 " clip-rule="nonzero"/></clipPath><clipPath id="cf6a967da3"><rect x="0" width="22" y="0" height="22"/></clipPath><clipPath id="35d9d0ae81"><path d="M 30 23 L 52 23 L 52 46 L 30 46 Z M 30 23 " clip-rule="nonzero"/></clipPath><clipPath id="73ecf8117c"><path d="M 28.273438 27.40625 L 48.597656 20.242188 L 55.414062 39.582031 L 35.09375 46.746094 Z M 28.273438 27.40625 " clip-rule="nonzero"/></clipPath><clipPath id="7e2614fb8e"><path d="M 38.421875 23.828125 L 43.421875 30.371094 L 51.171875 27.636719 L 46.507812 34.414062 L 51.507812 40.957031 L 43.628906 38.601562 L 38.96875 45.378906 L 38.757812 37.148438 L 30.878906 34.792969 L 38.628906 32.058594 Z M 38.421875 23.828125 " clip-rule="nonzero"/></clipPath><clipPath id="11d2ccc601"><path d="M 0.71875 0.71875 L 21.601562 0.71875 L 21.601562 22.558594 L 0.71875 22.558594 Z M 0.71875 0.71875 " clip-rule="nonzero"/></clipPath><clipPath id="f21e07cd8f"><path d="M -1.726562 4.40625 L 18.597656 -2.757812 L 25.414062 16.582031 L 5.09375 23.746094 Z M -1.726562 4.40625 " clip-rule="nonzero"/></clipPath><clipPath id="07136ad874"><path d="M 8.421875 0.828125 L 13.421875 7.371094 L 21.171875 4.636719 L 16.507812 11.414062 L 21.507812 17.957031 L 13.628906 15.601562 L 8.96875 22.378906 L 8.757812 14.148438 L 0.878906 11.792969 L 8.628906 9.058594 Z M 8.421875 0.828125 " clip-rule="nonzero"/></clipPath><clipPath id="360c10728d"><rect x="0" width="22" y="0" height="23"/></clipPath><clipPath id="ada0337d58"><path d="M 58 13 L 80 13 L 80 36 L 58 36 Z M 58 13 " clip-rule="nonzero"/></clipPath><clipPath id="2b46635ab6"><path d="M 56.242188 17.546875 L 76.566406 10.382812 L 83.382812 29.722656 L 63.0625 36.886719 Z M 56.242188 17.546875 " clip-rule="nonzero"/></clipPath><clipPath id="a507e6ef73"><path d="M 66.390625 13.96875 L 71.386719 20.511719 L 79.136719 17.78125 L 74.476562 24.554688 L 79.476562 31.097656 L 71.597656 28.742188 L 66.9375 35.519531 L 66.726562 27.289062 L 58.847656 24.933594 L 66.597656 22.199219 Z M 66.390625 13.96875 " clip-rule="nonzero"/></clipPath><clipPath id="4349fd12ea"><path d="M 0.800781 0.878906 L 21.679688 0.878906 L 21.679688 22.71875 L 0.800781 22.71875 Z M 0.800781 0.878906 " clip-rule="nonzero"/></clipPath><clipPath id="6a8634f78b"><path d="M -1.757812 4.546875 L 18.566406 -2.617188 L 25.382812 16.722656 L 5.0625 23.886719 Z M -1.757812 4.546875 " clip-rule="nonzero"/></clipPath><clipPath id="57ccdeec20"><path d="M 8.390625 0.96875 L 13.386719 7.511719 L 21.136719 4.78125 L 16.476562 11.554688 L 21.476562 18.097656 L 13.597656 15.742188 L 8.9375 22.519531 L 8.726562 14.289062 L 0.847656 11.933594 L 8.597656 9.199219 Z M 8.390625 0.96875 " clip-rule="nonzero"/></clipPath><clipPath id="ee59fb79f4"><rect x="0" width="22" y="0" height="23"/></clipPath><clipPath id="3a1b401645"><rect x="0" width="117" y="0" height="70"/></clipPath></defs><g clip-path="url(#679e4c56d3)"><g clip-path="url(#d5ad3514a9)"><g transform="matrix(1, 0, 0, 1, 6, 0)"><g clip-path="url(#421ff5bc8b)"><g clip-path="url(#4f0eda2be8)"><g clip-path="url(#2b53697432)"><path fill="#ffffff" d="M 0.578125 0 L 369 0 L 369 375.617188 L 0.578125 375.617188 Z M 0.578125 0 " fill-opacity="1" fill-rule="nonzero"/></g></g></g></g></g></g><g transform="matrix(1, 0, 0, 1, 96, 37)"><g clip-path="url(#2e4a637d7a)"><g fill="#001bb7" fill-opacity="1"><g transform="translate(18.297748, 255.551927)"><g><path d="M 160.703125 -58.265625 C 163.960938 -58.265625 166.242188 -57.519531 167.546875 -56.03125 C 168.847656 -54.539062 169.5 -52.726562 169.5 -50.59375 C 169.5 -49.09375 169.3125 -47.570312 168.9375 -46.03125 C 168.570312 -44.5 168.15625 -42.941406 167.6875 -41.359375 C 157.53125 -38.003906 147.070312 -34.160156 136.3125 -29.828125 C 125.550781 -25.503906 114.535156 -21.128906 103.265625 -16.703125 C 91.992188 -12.273438 80.488281 -8.195312 68.75 -4.46875 C 66.695312 -3.820312 63.757812 -3.078125 59.9375 -2.234375 C 56.125 -1.398438 51.722656 -0.519531 46.734375 0.40625 C 41.753906 1.34375 36.515625 2.253906 31.015625 3.140625 C 25.523438 4.023438 20.050781 4.816406 14.59375 5.515625 C 9.144531 6.210938 4.046875 6.796875 -0.703125 7.265625 L -16.90625 -19.421875 C -14.675781 -28.085938 -12.113281 -37.726562 -9.21875 -48.34375 C -6.332031 -58.96875 -3.238281 -70.054688 0.0625 -81.609375 C 3.375 -93.160156 6.773438 -104.664062 10.265625 -116.125 C 13.765625 -127.582031 17.210938 -138.503906 20.609375 -148.890625 C 24.015625 -159.273438 27.253906 -168.613281 30.328125 -176.90625 C 33.398438 -185.195312 36.144531 -191.90625 38.5625 -197.03125 C 39.40625 -198.707031 41.617188 -200.335938 45.203125 -201.921875 C 48.796875 -203.503906 53.410156 -205.019531 59.046875 -206.46875 C 64.679688 -207.914062 70.941406 -209.265625 77.828125 -210.515625 C 84.722656 -211.773438 91.921875 -212.914062 99.421875 -213.9375 C 106.921875 -214.96875 114.328125 -215.898438 121.640625 -216.734375 C 128.953125 -217.578125 135.800781 -218.273438 142.1875 -218.828125 C 148.570312 -219.390625 154.160156 -219.832031 158.953125 -220.15625 C 163.753906 -220.488281 167.316406 -220.65625 169.640625 -220.65625 C 174.953125 -220.65625 179.210938 -219.554688 182.421875 -217.359375 C 185.640625 -215.171875 187.25 -211.472656 187.25 -206.265625 L 187.25 -205 C 170.851562 -200.53125 154.570312 -196.195312 138.40625 -192 C 122.25 -187.8125 105.878906 -184.367188 89.296875 -181.671875 C 86.597656 -181.296875 84.59375 -180.640625 83.28125 -179.703125 C 81.976562 -178.773438 81.046875 -177.519531 80.484375 -175.9375 C 79.929688 -174.351562 79.328125 -172.253906 78.671875 -169.640625 C 77.835938 -166.015625 76.953125 -162.828125 76.015625 -160.078125 C 75.085938 -157.328125 74.179688 -154.71875 73.296875 -152.25 C 72.410156 -149.78125 71.5 -147.171875 70.5625 -144.421875 C 69.632812 -141.671875 68.707031 -138.476562 67.78125 -134.84375 C 70.382812 -135.03125 73.734375 -135.425781 77.828125 -136.03125 C 81.929688 -136.644531 86.265625 -137.320312 90.828125 -138.0625 C 95.398438 -138.8125 99.78125 -139.460938 103.96875 -140.015625 C 108.15625 -140.578125 111.695312 -140.859375 114.59375 -140.859375 C 119.8125 -140.859375 123.835938 -139.972656 126.671875 -138.203125 C 129.515625 -136.429688 131.472656 -134.054688 132.546875 -131.078125 C 133.617188 -128.097656 134.15625 -124.789062 134.15625 -121.15625 L 134.15625 -119.34375 C 128.1875 -117.476562 122.707031 -115.960938 117.71875 -114.796875 C 112.738281 -113.628906 107.921875 -112.648438 103.265625 -111.859375 C 98.609375 -111.066406 93.832031 -110.296875 88.9375 -109.546875 C 84.050781 -108.804688 78.722656 -107.878906 72.953125 -106.765625 C 69.128906 -106.015625 66.191406 -105.476562 64.140625 -105.15625 C 62.085938 -104.832031 60.570312 -104.363281 59.59375 -103.75 C 58.613281 -103.144531 57.773438 -102.144531 57.078125 -100.75 C 56.378906 -99.351562 55.472656 -97.210938 54.359375 -94.328125 C 51.566406 -87.335938 48.769531 -80.113281 45.96875 -72.65625 C 43.175781 -65.207031 40.59375 -58.015625 38.21875 -51.078125 C 35.84375 -44.140625 33.863281 -37.96875 32.28125 -32.5625 C 40.101562 -33.394531 48.273438 -34.789062 56.796875 -36.75 C 65.328125 -38.707031 74.0625 -40.894531 83 -43.3125 C 91.945312 -45.738281 100.867188 -48.09375 109.765625 -50.375 C 118.660156 -52.65625 127.414062 -54.539062 136.03125 -56.03125 C 144.65625 -57.519531 152.878906 -58.265625 160.703125 -58.265625 Z M 160.703125 -58.265625 "/></g></g></g></g></g><g transform="matrix(1, 0, 0, 1, 87, 47)"><g clip-path="url(#0847617ed0)"><g fill="#0046ff" fill-opacity="1"><g transform="translate(14.50794, 241.149303)"><g><path d="M 36 -1.1875 L 35.734375 -1.1875 C 35.203125 -1.1875 34.519531 -1.34375 33.6875 -1.65625 C 32.851562 -1.96875 31.53125 -2.671875 29.71875 -3.765625 C 27.90625 -4.867188 25.320312 -6.566406 21.96875 -8.859375 C 18.613281 -11.160156 14.242188 -14.226562 8.859375 -18.0625 C 3.484375 -21.90625 -3.265625 -26.78125 -11.390625 -32.6875 C -10.328125 -37.8125 -8.554688 -43.898438 -6.078125 -50.953125 C -3.609375 -58.015625 -0.675781 -65.648438 2.71875 -73.859375 C 6.113281 -82.066406 9.796875 -90.5625 13.765625 -99.34375 C 17.734375 -108.125 21.75 -116.835938 25.8125 -125.484375 C 29.875 -134.128906 33.800781 -142.421875 37.59375 -150.359375 C 41.382812 -158.304688 44.800781 -165.546875 47.84375 -172.078125 C 50.894531 -178.609375 53.367188 -184.097656 55.265625 -188.546875 C 57.160156 -193.003906 58.285156 -196.117188 58.640625 -197.890625 C 59.523438 -202.648438 61.066406 -206.023438 63.265625 -208.015625 C 65.472656 -210.003906 68.035156 -211 70.953125 -211 C 73.953125 -211 77.128906 -210.203125 80.484375 -208.609375 C 83.835938 -207.023438 87.125 -205.0625 90.34375 -202.71875 C 93.5625 -200.382812 96.40625 -198.023438 98.875 -195.640625 C 101.34375 -193.253906 103.195312 -191.269531 104.4375 -189.6875 C 103.726562 -183.0625 102.179688 -175.800781 99.796875 -167.90625 C 97.421875 -160.007812 94.488281 -151.757812 91 -143.15625 C 87.519531 -134.550781 83.703125 -125.878906 79.546875 -117.140625 C 75.398438 -108.410156 71.164062 -99.914062 66.84375 -91.65625 C 62.519531 -83.40625 58.328125 -75.640625 54.265625 -68.359375 C 50.210938 -61.085938 46.53125 -54.601562 43.21875 -48.90625 C 39.90625 -43.21875 37.234375 -38.648438 35.203125 -35.203125 C 35.117188 -35.117188 35.382812 -35.078125 36 -35.078125 C 37.414062 -35.078125 40.394531 -35.34375 44.9375 -35.875 C 49.476562 -36.40625 55.125 -37.15625 61.875 -38.125 C 68.625 -39.09375 76.015625 -40.191406 84.046875 -41.421875 C 92.078125 -42.660156 100.328125 -43.984375 108.796875 -45.390625 C 117.273438 -46.804688 125.53125 -48.21875 133.5625 -49.625 C 141.59375 -51.039062 148.875 -52.410156 155.40625 -53.734375 C 156.90625 -54.003906 158.316406 -54.140625 159.640625 -54.140625 C 162.816406 -54.140625 165.503906 -53.234375 167.703125 -51.421875 C 169.910156 -49.617188 171.015625 -46.6875 171.015625 -42.625 C 171.015625 -40.851562 170.679688 -39.613281 170.015625 -38.90625 C 169.359375 -38.207031 168.101562 -37.59375 166.25 -37.0625 C 157.78125 -34.59375 148.910156 -31.832031 139.640625 -28.78125 C 130.378906 -25.738281 121.023438 -22.695312 111.578125 -19.65625 C 102.140625 -16.613281 92.894531 -13.742188 83.84375 -11.046875 C 74.800781 -8.359375 66.195312 -6.128906 58.03125 -4.359375 C 49.875 -2.597656 42.53125 -1.539062 36 -1.1875 Z M 36 -1.1875 "/></g></g></g></g></g><g transform="matrix(1, 0, 0, 1, 108, 31)"><g clip-path="url(#3a1b401645)"><g clip-path="url(#f27c8079ce)"><g clip-path="url(#1177e92c33)"><g clip-path="url(#a39af95bb8)"><g transform="matrix(1, 0, 0, 1, 7, 46)"><g clip-path="url(#3dcfd3894c)"><g clip-path="url(#f96cf43997)"><g clip-path="url(#67eaf16fb7)"><g clip-path="url(#51b5b59bd1)"><path fill="#ff751f" d="M -2.351562 4.3125 L 17.96875 -2.851562 L 24.789062 16.488281 L 4.464844 23.652344 Z M -2.351562 4.3125 " fill-opacity="1" fill-rule="nonzero"/></g></g></g></g></g></g></g></g><g clip-path="url(#3d2dd5b85b)"><g clip-path="url(#41602daa39)"><g clip-path="url(#dfa1158a92)"><g transform="matrix(1, 0, 0, 1, 91, 17)"><g clip-path="url(#cf6a967da3)"><g clip-path="url(#897942c9a1)"><g clip-path="url(#2ab69b42f9)"><g clip-path="url(#6f3e47bab5)"><path fill="#ff751f" d="M -2.21875 3.652344 L 18.105469 -3.507812 L 24.921875 15.832031 L 4.601562 22.996094 Z M -2.21875 3.652344 " fill-opacity="1" fill-rule="nonzero"/></g></g></g></g></g></g></g></g><g clip-path="url(#35d9d0ae81)"><g clip-path="url(#73ecf8117c)"><g clip-path="url(#7e2614fb8e)"><g transform="matrix(1, 0, 0, 1, 30, 23)"><g clip-path="url(#360c10728d)"><g clip-path="url(#11d2ccc601)"><g clip-path="url(#f21e07cd8f)"><g clip-path="url(#07136ad874)"><path fill="#ff751f" d="M -1.726562 4.40625 L 18.597656 -2.757812 L 25.414062 16.582031 L 5.09375 23.746094 Z M -1.726562 4.40625 " fill-opacity="1" fill-rule="nonzero"/></g></g></g></g></g></g></g></g><g clip-path="url(#ada0337d58)"><g clip-path="url(#2b46635ab6)"><g clip-path="url(#a507e6ef73)"><g transform="matrix(1, 0, 0, 1, 58, 13)"><g clip-path="url(#ee59fb79f4)"><g clip-path="url(#4349fd12ea)"><g clip-path="url(#6a8634f78b)"><g clip-path="url(#57ccdeec20)"><path fill="#ff751f" d="M -1.757812 4.546875 L 18.566406 -2.617188 L 25.382812 16.722656 L 5.0625 23.886719 Z M -1.757812 4.546875 " fill-opacity="1" fill-rule="nonzero"/></g></g></g></g></g></g></g></g></g></g></svg>